<svg xmlns="http://www.w3.org/2000/svg" width="14.913" height="16.652" viewBox="0 0 14.913 16.652">
  <path id="trash-02" d="M4,5.762H17.913m-8.7,9.207V9.445M12.7,14.969V9.445m1.739,9.207H7.478a1.792,1.792,0,0,1-1.739-1.841V6.683a.9.9,0,0,1,.87-.921h8.7a.9.9,0,0,1,.87.921V16.811A1.792,1.792,0,0,1,14.435,18.652ZM9.217,5.762H12.7a.9.9,0,0,0,.87-.921V3.921A.9.9,0,0,0,12.7,3H9.217a.9.9,0,0,0-.87.921v.921A.9.9,0,0,0,9.217,5.762Z" transform="translate(-3.5 -2.5)" fill="none" stroke="#3e3e3e" stroke-linecap="round" stroke-linejoin="round" stroke-width="1"/>
</svg>