<svg xmlns="http://www.w3.org/2000/svg" width="34" height="34" viewBox="0 0 34 34">
  <g id="Share" transform="translate(-377.714 -1708.713)">
    <circle id="Ellipse_223" data-name="Ellipse 223" cx="17" cy="17" r="17" transform="translate(377.714 1708.713)" fill="none" opacity="0.042"/>
    <circle id="Ellipse_398" data-name="Ellipse 398" cx="17" cy="17" r="17" transform="translate(377.714 1708.713)" fill="none" opacity="0.042"/>
    <g id="Group_23855" data-name="Group 23855" transform="translate(387.119 1718.919)">
      <path id="Path_7499" data-name="Path 7499" d="M8.388,7.3a15.864,15.864,0,0,0-3.1.244,3.378,3.378,0,0,0-2.849,2.94,10.569,10.569,0,0,0-.05,2.483c.014.2.051.422-.2.49s-.376-.123-.466-.32A12.421,12.421,0,0,1,.615,9.99,6.063,6.063,0,0,1,1.394,5.51,5.224,5.224,0,0,1,4.579,3.466a15.154,15.154,0,0,1,4.1-.4c.285,0,.569,0,.853,0a.23.23,0,0,0,.265-.256A9.567,9.567,0,0,0,9.809,1.31a.661.661,0,0,1,.339-.753c.309-.148.535.014.751.231q1.943,1.952,3.894,3.9c.378.378.371.659-.007,1.035q-1.938,1.932-3.875,3.866c-.187.185-.383.39-.684.272-.322-.126-.381-.4-.4-.718A10.863,10.863,0,0,1,9.838,7.6c.02-.226-.072-.314-.3-.306C9.154,7.309,8.771,7.3,8.388,7.3Z" transform="translate(-0.191 -0.191)" fill="none" stroke="#3e3e3e" stroke-width="1"/>
    </g>
  </g>
</svg>
