<svg xmlns="http://www.w3.org/2000/svg" width="34.27" height="31.674" viewBox="0 0 34.27 31.674">
  <g id="Group_24783" data-name="Group 24783" transform="translate(0 -1.501)">
    <g id="Group_24784" data-name="Group 24784" transform="translate(0 14.275)">
      <path id="Path_8196" data-name="Path 8196" d="M13.336,5.269c3.694,0,7.387.008,11.078-.011.519-.006.754.111.671.663a5,5,0,0,0,0,.735.391.391,0,0,0,.433.421.4.4,0,0,0,.419-.438c0-.333.014-.666,0-1-.011-.261.064-.38.349-.377,1.994.008,3.99-.022,5.984.017a1.947,1.947,0,0,1,1.811,1.228,1.388,1.388,0,0,1-.649,1.994,2.713,2.713,0,0,0-1.406,3.145,2.609,2.609,0,0,0,1.345,1.725,1.409,1.409,0,0,1,.885,1.2,1.449,1.449,0,0,1-.846,1.436,2.731,2.731,0,0,0-.887,4.135,2.3,2.3,0,0,0,.923.757c1.184.524.973,2.046-.014,2.8a2.265,2.265,0,0,1-1.425.43c-1.855-.008-3.71-.014-5.563.008-.435.006-.521-.161-.519-.549,0-.286.164-.638-.225-.843-.349-.183-.56-.083-.621.3-.055.349.194.821-.172,1.02a2.367,2.367,0,0,1-1.029.058q-10.815,0-21.629,0A2.06,2.06,0,0,1,0,22.234a1.366,1.366,0,0,1,.871-1.359,2.621,2.621,0,0,0,1.439-2.288A2.6,2.6,0,0,0,.891,16.037,1.465,1.465,0,0,1,0,14.778a1.4,1.4,0,0,1,.849-1.384,2.657,2.657,0,0,0,1.215-1.256A2.734,2.734,0,0,0,1.013,8.613c-.61-.341-1.1-.729-.993-1.5A2.027,2.027,0,0,1,1.482,5.372a2.716,2.716,0,0,1,.885-.1q5.486,0,10.97,0ZM11.27,19.949a.924.924,0,0,0,1.043-.538c1.572-2.92,3.214-5.8,4.817-8.7.169-.3.58-.6.344-.973-.211-.327-.652-.114-.987-.15a.946.946,0,0,0-1.059.557c-1.6,2.942-3.236,5.868-4.869,8.8-.541.971-.524,1.015.713,1.012m-.294-5.46A2.506,2.506,0,1,0,8.5,11.935a2.465,2.465,0,0,0,2.474,2.554m8.444,3.092a2.494,2.494,0,0,0-2.579-2.523A2.548,2.548,0,0,0,14.4,17.52a2.508,2.508,0,1,0,5.016.061m6.514-.873h0c0-.3.008-.593,0-.887-.011-.277-.139-.48-.444-.471-.275.008-.4.189-.4.452q-.008.89-.006,1.775a.4.4,0,0,0,.416.441c.294.006.433-.186.435-.474s0-.557,0-.835m-.854-3.691h.006c0,.313-.008.627,0,.94a.384.384,0,0,0,.38.416.391.391,0,0,0,.458-.394c.019-.627.025-1.253,0-1.88a.408.408,0,0,0-.466-.394.4.4,0,0,0-.377.424c-.006.294,0,.591,0,.887M25.934,9.4c0-.3.011-.6,0-.893a.4.4,0,0,0-.427-.43.388.388,0,0,0-.424.427c0,.6,0,1.19.006,1.786a.386.386,0,0,0,.419.43.391.391,0,0,0,.427-.427c.011-.3,0-.6,0-.893M25.08,20.363c0,.277,0,.557,0,.835s.122.446.4.455a.411.411,0,0,0,.449-.463c.008-.574.006-1.148.006-1.722a.428.428,0,1,0-.854.008c0,.3,0,.591,0,.887" transform="translate(0 -5.258)" fill="#fbb523"/>
      <path id="Path_8200" data-name="Path 8200" d="M4.68,9.415a1.064,1.064,0,0,1-1.1-1.081A1.078,1.078,0,0,1,4.674,7.3a1.007,1.007,0,0,1,1.043,1A1,1,0,0,1,4.68,9.415" transform="translate(6.341 -1.639)" fill="#fbb523"/>
      <path id="Path_8201" data-name="Path 8201" d="M7.81,10.411a1.032,1.032,0,0,1-1.032,1.076,1.02,1.02,0,0,1-1.057-1.051,1.046,1.046,0,1,1,2.088-.025" transform="translate(10.146 1.921)" fill="#fbb523"/>
    </g>
    <path id="Subtraction_69" data-name="Subtraction 69" d="M24.142,11.359H0c.9-1.215,1.824-2.467,2.619-3.547l.075-.1c1.621-2.2,3.3-4.469,4.953-6.683A2.3,2.3,0,0,1,9.542,0,3.059,3.059,0,0,1,10.5.169a2.474,2.474,0,0,1,1.858,2.412,1.777,1.777,0,0,0,.52,1.306,2.213,2.213,0,0,0,1.563.682,1.84,1.84,0,0,0,.522-.074,2.69,2.69,0,0,1,.762-.112A2.445,2.445,0,0,1,17.964,5.8a2.172,2.172,0,0,1,.195,1.026A2.087,2.087,0,0,0,20.25,8.85a1.963,1.963,0,0,0,.57-.085,2.512,2.512,0,0,1,.741-.117,2.562,2.562,0,0,1,2.06,1.2,2.6,2.6,0,0,1,.521,1.512Z" transform="translate(8.502 2.001)" fill="#c48d35" stroke="rgba(0,0,0,0)" stroke-miterlimit="10" stroke-width="1"/>
    <g id="Group_24785" data-name="Group 24785" transform="translate(8.503 18.493)">
      <path id="Path_8197" data-name="Path 8197" d="M4.736,17.206c-1.237,0-1.253-.042-.71-1.012C5.657,13.266,7.29,10.34,8.9,7.4a.951.951,0,0,1,1.057-.557c.338.039.779-.175.987.153.236.369-.175.668-.341.973-1.606,2.9-3.244,5.784-4.819,8.7a.921.921,0,0,1-1.043.538" transform="translate(-1.968 -6.733)" fill="#fff"/>
      <path id="Path_8198" data-name="Path 8198" d="M5.542,11.793a2.507,2.507,0,0,1,.044-5.014,2.507,2.507,0,0,1-.044,5.014m.042-1.456A1,1,0,0,0,6.621,9.222a1.007,1.007,0,0,0-1.043-1,1.078,1.078,0,0,0-1.1,1.034,1.064,1.064,0,0,0,1.1,1.081" transform="translate(-3.066 -6.779)" fill="#fff"/>
      <path id="Path_8199" data-name="Path 8199" d="M10.211,11.317A2.442,2.442,0,0,1,7.621,13.8a2.45,2.45,0,0,1-2.426-2.548A2.551,2.551,0,0,1,7.632,8.791a2.5,2.5,0,0,1,2.579,2.526m-1.464.008a1.046,1.046,0,1,0-2.088.025A1.02,1.02,0,0,0,7.715,12.4a1.032,1.032,0,0,0,1.032-1.076" transform="translate(0.707 -3.212)" fill="#fff"/>
    </g>
  </g>
</svg>
